<svg width="113" height="60" viewBox="0 0 113 60" fill="none" xmlns="http://www.w3.org/2000/svg">
<path d="M14.2837 15.2463C16.6579 11.4884 20.9576 10.3998 20.9576 10.3998C20.9576 10.3998 12.7516 8.31826 12.7516 0C12.7516 8.31826 4.54077 10.3998 4.54077 10.3998C4.54077 10.3998 8.84205 11.4884 11.2179 15.2463H0V29.6528L2.55032 25.1914H7.64937V50.0549L17.849 60V29.5569C15.248 28.3878 11.5113 25.4156 10.1727 23.1485C12.4582 23.8212 15.5239 24.7058 17.9109 25.1929H25.5V15.2463H14.2837Z" fill="white"/>
<path fill-rule="evenodd" clip-rule="evenodd" d="M104.689 33.5088L108.337 38.6446H112.5L106.711 30.9323L111.916 23.9319H107.946L104.769 28.5959L101.565 23.9319H97.4021L102.746 31.1242L97.1525 38.6446H101.121L104.689 33.5088Z" fill="white"/>
<path fill-rule="evenodd" clip-rule="evenodd" d="M86.235 32.248H97.2309V32.0264C97.2309 31.8964 97.2374 31.7722 97.2444 31.6416L97.2445 31.6391C97.2514 31.5107 97.2586 31.3761 97.2586 31.2336C97.2586 28.8256 96.5387 26.9015 95.2834 25.5774C94.027 24.2521 92.2542 23.5492 90.1927 23.5492C86.1084 23.5492 82.7113 26.5455 82.7113 31.2609C82.7113 33.659 83.4751 35.5984 84.8226 36.9389C86.1701 38.2794 88.0799 39 90.3312 39C92.9041 39 94.9067 38.243 96.5346 36.4955L96.6672 36.353L94.7801 34.1051L94.6057 34.2735C93.3451 35.4912 92.0993 35.9598 90.5527 35.9598C89.278 35.9598 88.2635 35.6161 87.5357 34.9648C86.8531 34.354 86.3997 33.4522 86.235 32.248ZM86.3106 29.7272H93.704C93.5562 28.7549 93.1902 27.9629 92.6388 27.404C92.0449 26.802 91.2188 26.4528 90.165 26.4528C88.2394 26.4528 86.7567 27.7245 86.3106 29.7272Z" fill="white"/>
<path fill-rule="evenodd" clip-rule="evenodd" d="M68.4866 36.7538L68.4198 38.6446H65.1255V18H68.5383V25.8423C69.6574 24.4104 71.347 23.5492 73.4932 23.5492C75.7036 23.5492 77.4769 24.41 78.6943 25.8136C79.9087 27.2136 80.5591 29.1401 80.5591 31.2609C80.5591 35.5672 77.658 39 73.4378 39C71.2354 39 69.5779 38.1544 68.4866 36.7538ZM75.8097 34.6854C76.5821 33.8876 77.0632 32.7282 77.0632 31.2883C77.0632 29.8156 76.6134 28.649 75.8788 27.8531C75.1454 27.0585 74.1132 26.6168 72.9115 26.6168C71.693 26.6168 70.6031 27.0539 69.8178 27.8484C69.0329 28.6424 68.5383 29.8077 68.5383 31.2883C68.5383 32.7741 68.9946 33.9328 69.738 34.718C70.4807 35.5023 71.5269 35.9325 72.7453 35.9325C73.9616 35.9325 75.0374 35.4832 75.8097 34.6854Z" fill="white"/>
<path fill-rule="evenodd" clip-rule="evenodd" d="M51.0153 32.248H62.0111V32.0264C62.0111 31.8964 62.0177 31.7722 62.0247 31.6416L62.0248 31.6391C62.0317 31.5107 62.0388 31.3761 62.0388 31.2336C62.0388 28.8256 61.319 26.9015 60.0637 25.5774C58.8073 24.2521 57.0344 23.5492 54.973 23.5492C50.8887 23.5492 47.4916 26.5455 47.4916 31.2609C47.4916 33.659 48.2554 35.5984 49.6029 36.9389C50.9503 38.2794 52.8602 39 55.1114 39C57.6843 39 59.687 38.243 61.3149 36.4955L61.4475 36.353L59.5603 34.1051L59.386 34.2735C58.1253 35.4912 56.8796 35.9598 55.333 35.9598C54.0583 35.9598 53.0438 35.6161 52.3159 34.9648C51.6334 34.354 51.18 33.4522 51.0153 32.248ZM51.0908 29.7272H58.4843C58.3365 28.7549 57.9704 27.9629 57.4191 27.404C56.8252 26.802 55.9991 26.4528 54.9453 26.4528C53.0197 26.4528 51.5369 27.7245 51.0908 29.7272Z" fill="white"/>
<path fill-rule="evenodd" clip-rule="evenodd" d="M37.5021 26.8901V34.0219C37.5021 35.775 38.0293 37.0308 38.9361 37.8454C39.8391 38.6566 41.0849 39 42.4629 39C43.984 39 45.277 38.5169 46.4199 37.6709L46.5721 37.5582L45.1992 34.945L44.9872 35.102C44.2403 35.6548 43.6217 35.9051 42.7676 35.9051C42.1996 35.9051 41.7427 35.7463 41.4284 35.445C41.1156 35.145 40.9148 34.6754 40.9148 33.9945V26.8901H46.2328V23.9319H40.9148V19.9955H37.5021V23.9319H35.2819L34.5 26.8901H37.5021Z" fill="white"/>
</svg>
